PathFileType	4	(X/Y/Z)	OpenSim_Sub09_CSBaseline_Magnet.trc
DataRate	CameraRate	NumFrames	NumMarkers	Units	OrigDataRate	OrigDataStartFrame	OrigNumFrames
100	100	23	8	m	100	1461	5840
Frame#	Time	torso_imu_offset_imu	pelvis_imu_offset_imu	tibia_r_imu_offset_imu	femur_r_imu_offset_imu	tibia_l_imu_offset_imu	femur_l_imu_offset_imu	toes_r_imu_offset_imu	toes_l_imu_offset_imu
				X1	Y1	Z1	X2	Y2	Z2	X3	Y3	Z3	X4	Y4	Z4	X5	Y5	Z5	X6	Y6	Z6	X7	Y7	Z7	X8		Y8	Z8	

1461	14.60000000	-0.90914994	-0.22428675	0.00339535	-0.67209988	0.30829286	-0.56723843	-0.37770933	-0.74450075	-0.13458232	-0.84179331	-0.19683800	-0.09153359	-0.62104308	0.46055949	0.23840721	-0.64985231	0.09816376	0.27305657	-0.70354402	-0.29315690	-0.21956930	-0.70225043	-0.15261023	-0.38964129
1462	14.61000000	-0.91304825	-0.22157226	0.00452107	-0.66841820	0.30823716	-0.57217520	-0.40798151	-0.72416116	-0.12788256	-0.83980024	-0.19251613	-0.09525646	-0.62491918	0.45877907	0.24025908	-0.64876761	0.10540466	0.26884066	-0.70580062	-0.26818861	-0.24834896	-0.70272861	-0.15436842	-0.39805731
1463	14.62000000	-0.90966435	-0.22549764	0.01091849	-0.66559645	0.31255661	-0.56751926	-0.44193069	-0.70509045	-0.12733649	-0.84350487	-0.19044689	-0.09939957	-0.61651741	0.45743743	0.24702248	-0.64985718	0.10766287	0.27849566	-0.69956963	-0.24279738	-0.27551893	-0.70264150	-0.15313118	-0.39811396
1464	14.63000000	-0.90432305	-0.22428651	0.01450768	-0.66572107	0.31085216	-0.57942580	-0.47714679	-0.68500879	-0.12972568	-0.84108844	-0.18453218	-0.09283558	-0.61591697	0.46345262	0.24596641	-0.64574516	0.11503788	0.26547691	-0.69632570	-0.22548835	-0.30988243	-0.70240244	-0.15833745	-0.39520999
1465	14.64000000	-0.90818193	-0.22432684	0.01367642	-0.66357201	0.31473954	-0.57852337	-0.50214182	-0.66057019	-0.13962916	-0.83816715	-0.18440543	-0.09768140	-0.60784301	0.46841925	0.24626132	-0.64706563	0.12481783	0.26511232	-0.69408619	-0.20377857	-0.32647596	-0.70264743	-0.15292276	-0.39274996
1466	14.65000000	-0.90551626	-0.21943545	0.02044324	-0.66371456	0.31270882	-0.57674841	-0.53097252	-0.63666903	-0.15677959	-0.83723846	-0.19097373	-0.09944410	-0.61019636	0.47300657	0.24964108	-0.64809607	0.12750595	0.27367501	-0.68526836	-0.18608151	-0.35516312	-0.70241600	-0.15342257	-0.39302138
1467	14.66000000	-0.90391056	-0.22668747	0.01512037	-0.65956744	0.32031353	-0.57753157	-0.55646318	-0.61671775	-0.16516086	-0.84144030	-0.19018456	-0.09704042	-0.61038017	0.47495311	0.24464813	-0.64463577	0.13271475	0.27009858	-0.67284079	-0.16790579	-0.38039397	-0.70463346	-0.15401232	-0.38840035
1468	14.67000000	-0.90619734	-0.22532637	0.02168873	-0.66434022	0.31639357	-0.57694038	-0.57816277	-0.58472790	-0.17682697	-0.84063435	-0.19087450	-0.09496956	-0.60340045	0.48175725	0.25180270	-0.63851226	0.14201484	0.27062964	-0.66304870	-0.15133385	-0.40595716	-0.70431046	-0.15595345	-0.39221833
1469	14.68000000	-0.90652236	-0.22014751	0.02152105	-0.66586539	0.31463423	-0.57926074	-0.60308641	-0.55753248	-0.18645034	-0.83766945	-0.19708242	-0.09018799	-0.60250240	0.48017468	0.25041127	-0.63328256	0.14518586	0.27370566	-0.64748717	-0.14610365	-0.43660515	-0.71048622	-0.15480534	-0.38736699
1470	14.69000000	-0.90665965	-0.21955038	0.02195503	-0.66418651	0.31581881	-0.57814713	-0.62920067	-0.53543038	-0.20404588	-0.83932726	-0.19836674	-0.08762380	-0.60087677	0.48708495	0.24527221	-0.63494673	0.14872542	0.27287675	-0.63125571	-0.13547575	-0.46784553	-0.71006794	-0.15174391	-0.38542731
1471	14.70000000	-0.90467818	-0.22104611	0.02700383	-0.65886253	0.31095434	-0.57393056	-0.63724533	-0.50669048	-0.21683819	-0.83830904	-0.19738979	-0.08492271	-0.59970957	0.49286039	0.25417425	-0.63261922	0.15406973	0.28148663	-0.61111103	-0.12110664	-0.48493780	-0.70923026	-0.15536221	-0.38689252
1472	14.71000000	-0.90415332	-0.22414214	0.02763521	-0.66485892	0.31484917	-0.58342688	-0.66028652	-0.48202329	-0.21861051	-0.83537677	-0.20318736	-0.08721256	-0.58762807	0.49661407	0.24874885	-0.62475440	0.15225349	0.28082418	-0.59394443	-0.11835574	-0.51601124	-0.70881640	-0.15683576	-0.37941859
1473	14.72000000	-0.90463306	-0.21963780	0.02894615	-0.66029329	0.31006089	-0.57777957	-0.67848927	-0.46196957	-0.23807618	-0.83558898	-0.20519641	-0.08077574	-0.58249134	0.50335223	0.25164224	-0.62815252	0.15864812	0.28319380	-0.57452104	-0.10535915	-0.53982050	-0.71325473	-0.15250934	-0.38660706
1474	14.73000000	-0.90401973	-0.22492036	0.03174808	-0.65876227	0.30871712	-0.58290941	-0.69066335	-0.43224523	-0.24417800	-0.83126712	-0.21527853	-0.08173712	-0.58760169	0.50620397	0.24383704	-0.62827134	0.16844296	0.28918881	-0.55183290	-0.09704800	-0.56115585	-0.71346351	-0.15174596	-0.38679255
1475	14.74000000	-0.90773356	-0.22275414	0.03177844	-0.65832637	0.30702455	-0.57998147	-0.69722876	-0.40327881	-0.25458460	-0.83382071	-0.21351671	-0.07635140	-0.58100618	0.50983721	0.24984986	-0.62185788	0.17172811	0.28352583	-0.53055370	-0.08810583	-0.58746938	-0.71943123	-0.15167198	-0.38581185
1476	14.75000000	-0.91083198	-0.22116388	0.03526087	-0.66479793	0.30677436	-0.58241364	-0.71596664	-0.38353315	-0.26071232	-0.83617958	-0.21510652	-0.07511950	-0.57308232	0.51623333	0.24968794	-0.61805069	0.17320549	0.28385465	-0.51178661	-0.07366423	-0.59957729	-0.71920795	-0.15269611	-0.38589364
1477	14.76000000	-0.90936659	-0.22270352	0.04020072	-0.65998952	0.30361627	-0.58606524	-0.72032032	-0.36338694	-0.27163706	-0.82569386	-0.22199862	-0.06972015	-0.57056147	0.52280465	0.24845604	-0.62143410	0.17937086	0.28649747	-0.49509681	-0.06058706	-0.61560028	-0.71599999	-0.14417359	-0.38652961
1478	14.77000000	-0.90657551	-0.21385192	0.04078984	-0.65957241	0.29864906	-0.58392061	-0.72233576	-0.34041878	-0.27849449	-0.82678814	-0.22445292	-0.06291701	-0.56892619	0.52965768	0.24788532	-0.61166889	0.18224629	0.28758420	-0.48012980	-0.04799377	-0.62652070	-0.72024131	-0.14510735	-0.38165420
1479	14.78000000	-0.91023016	-0.22055781	0.03713444	-0.66343881	0.29993224	-0.58337190	-0.73959337	-0.31921399	-0.28137050	-0.83250724	-0.22705817	-0.06946535	-0.56498158	0.53297598	0.25024304	-0.61206919	0.18897476	0.28083812	-0.46804329	-0.03730496	-0.64494358	-0.71878110	-0.13993084	-0.38614271
1480	14.79000000	-0.90978023	-0.21566823	0.03534427	-0.65671484	0.30021018	-0.58358733	-0.74209051	-0.29976116	-0.28675882	-0.82907110	-0.22473623	-0.06451814	-0.56019026	0.53352083	0.24649156	-0.60914781	0.20133580	0.28188582	-0.45223021	-0.02533569	-0.65357991	-0.72280222	-0.13841647	-0.37761385
1481	14.80000000	-0.90543432	-0.20887153	0.03993501	-0.66396523	0.30301756	-0.58212992	-0.73686531	-0.28576254	-0.30522902	-0.82833755	-0.23009670	-0.06444840	-0.55820167	0.54799049	0.24480828	-0.60990673	0.20012446	0.27798766	-0.43973074	-0.01250787	-0.66126354	-0.72120447	-0.13848801	-0.38510186
1482	14.81000000	-0.90428141	-0.21255539	0.03800535	-0.66182192	0.29507959	-0.57693059	-0.74244059	-0.27686947	-0.30618214	-0.82477783	-0.23016040	-0.06565424	-0.55269302	0.55263727	0.24262465	-0.61121403	0.20749384	0.28141302	-0.43994966	-0.00322281	-0.66534709	-0.72456112	-0.13978841	-0.37682499
1483	14.82000000	-0.90830857	-0.21372700	0.04364322	-0.66057486	0.29905261	-0.57823173	-0.74420748	-0.27010017	-0.30970989	-0.82564778	-0.22485383	-0.06508321	-0.54392467	0.55737279	0.24391160	-0.60759357	0.20884531	0.27855030	-0.43001394	0.00056149	-0.66164720	-0.72755644	-0.12981373	-0.37644762
